<svg xmlns="http://www.w3.org/2000/svg" xmlns:xlink="http://www.w3.org/1999/xlink" width="60" height="60" viewBox="0 0 60 60">
    <defs>
        <circle id="a" cx="30" cy="30" r="30"/>
        <filter id="b" width="200%" height="200%" x="-50%" y="-50%" filterUnits="objectBoundingBox">
            <feOffset in="SourceAlpha" result="shadowOffsetOuter1"/>
            <feGaussianBlur in="shadowOffsetOuter1" result="shadowBlurOuter1" stdDeviation="10"/>
            <feColorMatrix in="shadowBlurOuter1" values="0 0 0 0 0.924372874 0 0 0 0 0.924372874 0 0 0 0 0.924372874 0 0 0 1 0"/>
        </filter>
    </defs>
    <g fill="none" fill-rule="evenodd">
        <mask id="c" fill="#fff">
            <use xlink:href="#a"/>
        </mask>
        <use fill="#000" filter="url(#b)" xlink:href="#a"/>
        <use fill="#FFF" xlink:href="#a"/>
        <g mask="url(#c)">
            <path fill="#33BBD4" d="M31.394 10a19.47 19.47 0 0 1 11.655 5.33c-.158.067-.316.156-.451.223a5.28 5.28 0 0 0-2.48 3.382 14.835 14.835 0 0 0-8.724-4.3V10zM48.3 24.107c.451 1.657.699 3.382.699 5.195a19.23 19.23 0 0 1-1.758 8.04l-4.036-2.33a14.599 14.599 0 0 0 1.15-5.71c0-1.5-.225-2.978-.654-4.344a5.14 5.14 0 0 0 4.036-.492c.225-.112.405-.224.563-.359zm-2.908 16.436A19.446 19.446 0 0 1 34.55 48c.067-.313.09-.65.09-1.008 0-1.32-.496-2.53-1.33-3.448a14.892 14.892 0 0 0 8.025-5.33l4.058 2.33zM24.383 48a19.493 19.493 0 0 1-10.754-7.434l4.058-2.33a15.053 15.053 0 0 0 7.958 5.33 5.138 5.138 0 0 0-1.353 3.471c0 .314.046.65.09.963zM11.758 37.319A19.154 19.154 0 0 1 10 29.279c0-1.79.248-3.492.699-5.15.158.113.315.225.496.314 1.307.74 2.795.873 4.125.448a14.733 14.733 0 0 0-.654 4.367c0 2.015.406 3.963 1.15 5.71l-4.058 2.35zm4.216-21.967A19.497 19.497 0 0 1 27.651 10v4.635a14.845 14.845 0 0 0-8.791 4.367 5.255 5.255 0 0 0-2.48-3.449l-.406-.201z"/>
            <path fill="#FF9C22" d="M34.656 26.004c-.611 2.451-4.41 1.215-5.632.9l1.086-4.317c1.221.292 5.179.877 4.546 3.417zm-.679 6.992c-.678 2.698-5.224 1.237-6.717.877l1.199-4.766c1.47.36 6.22 1.08 5.518 3.89zm4.976-6.947c.384-2.63-1.629-4.046-4.365-4.99l.882-3.553-2.171-.54-.86 3.463c-.565-.135-1.153-.27-1.741-.405l.882-3.484-2.171-.54-.905 3.552c-.475-.112-.95-.225-1.402-.315l-3.008-.741-.588 2.315s1.605.36 1.583.382c.882.225 1.04.81 1.018 1.26l-1.018 4.046c.068.023.135.045.226.068-.068-.023-.158-.045-.226-.068l-1.425 5.688c-.113.27-.385.675-.995.517.022.023-1.583-.382-1.583-.382L20 34.795l2.827.697 1.56.405-.904 3.597 2.171.54.905-3.553c.588.157 1.176.315 1.741.45l-.904 3.53 2.17.539.906-3.597c3.709.697 6.513.427 7.69-2.923.95-2.698-.046-4.249-2.014-5.26 1.448-.315 2.51-1.237 2.805-3.17z"/>
            <path fill="#33BBD4" d="M30.005 51c-2.189 0-3.963-1.739-3.963-3.884 0-2.146 1.774-3.885 3.963-3.885s3.963 1.74 3.963 3.885c0 2.145-1.774 3.884-3.963 3.884zm19.47-33.063c1.083 1.852.438 4.223-1.452 5.307-1.889 1.062-4.308.43-5.414-1.422-1.083-1.852-.438-4.223 1.451-5.307 1.89-1.062 4.31-.43 5.415 1.422zm-38.94 0c1.083-1.852 3.502-2.484 5.415-1.422a3.853 3.853 0 0 1 1.452 5.307c-1.083 1.852-3.503 2.484-5.415 1.422-1.89-1.06-2.558-3.455-1.452-5.307z"/>
        </g>
    </g>
</svg>
