<svg xmlns="http://www.w3.org/2000/svg" width="72" height="51" viewBox="0 0 72 51">
    <g fill="none" fill-rule="evenodd">
        <g stroke="#00CECB" stroke-linecap="round" stroke-linejoin="round" stroke-width="2">
            <path d="M70.71 29.802C63.068 18.99 50.314 10.74 35.87 10.74c-14.462 0-27.232 8.3-34.87 19.109M70.641 30.12c-7.65 10.766-20.37 18.967-34.77 18.967-14.463 0-27.233-8.3-34.871-19.109"/>
        </g>
        <path fill="#00CECB" fill-rule="nonzero" d="M36.304 40.957c-5.93 0-10.739-4.809-10.739-10.74 0-5.93 4.808-10.739 10.74-10.739 5.93 0 10.738 4.808 10.738 10.74 0 5.93-4.808 10.739-10.739 10.739zm0-2a8.74 8.74 0 1 0 0-17.479 8.74 8.74 0 0 0 0 17.479zM8.707 17.64a1 1 0 0 1-1.414 1.415l-4.87-4.87a1 1 0 0 1 1.415-1.414l4.87 4.87zM62.684 16.423a1 1 0 0 0 1.414 1.415l4.87-4.87a1 1 0 1 0-1.414-1.414l-4.87 4.87zM20.183 11.045a1 1 0 0 1-1.932.518L16.47 4.91a1 1 0 0 1 1.932-.518l1.782 6.652zM50.556 9.828a1 1 0 1 0 1.932.518l1.782-6.652a1 1 0 0 0-1.932-.518l-1.782 6.652zM36.696 7.887a1 1 0 0 1-2 0V1a1 1 0 1 1 2 0v6.887z"/>
    </g>
</svg>
