<svg xmlns="http://www.w3.org/2000/svg" width="62" height="78" viewBox="0 0 62 78">
    <g fill="#00CECB" fill-rule="nonzero">
        <path d="M2 37.75c0 3.333.51 7.838 1.12 9.767.632 2.001 5.88 9.172 11.39 15.38 6.615 7.456 12.4 12.265 15.13 12.265h1.83c2.353 0 8.106-4.972 15.118-12.77 5.388-5.99 11.271-13.462 11.988-14.997.52-1.114.879-2.38 1.104-3.813.263-1.675.32-3.072.32-5.833V7.65c-12.734 1.809-22.408.359-28.992-4.416C24.044 7.902 14.365 9.356 2 7.645v30.104zm-2 0h1.871H0zm0 0V5.324l1.15.175c12.814 1.95 22.57.491 29.301-4.314l.607-.433.588.458c6.276 4.882 15.998 6.338 29.2 4.29L62 5.32V37.75c0 2.863-.06 4.333-.345 6.144-.252 1.606-.66 3.05-1.267 4.349-.832 1.781-6.784 9.34-12.313 15.488-7.542 8.388-13.38 13.432-16.605 13.432h-1.83c-3.58 0-9.555-4.967-16.626-12.937C7.307 57.795 1.962 50.491 1.213 48.12.53 45.965 0 41.27 0 37.75z"/>
        <path d="M31 18.905l-13.25 7.672v15.346L31 49.595l13.25-7.672V26.577L31 18.905zm15.25 6.518v17.654L31 51.905l-15.25-8.828V25.423L31 16.595l15.25 8.828z"/>
        <path d="M30 17.5h2V51h-2z"/>
        <path d="M44.86 43.868l1.008-1.728L17.14 25.382l-1.008 1.728z"/>
        <path d="M17.14 43.868l-1.008-1.728L44.86 25.382l1.008 1.728z"/>
    </g>
</svg>
