<svg xmlns="http://www.w3.org/2000/svg" width="232" height="62" viewBox="0 0 232 62">
    <defs>
        <linearGradient id="a" x1="91.49%" x2="-38.317%" y1="4.96%" y2="71.909%">
            <stop offset="0%" stop-color="#00A0FF"/>
            <stop offset=".66%" stop-color="#00A1FF"/>
            <stop offset="26.01%" stop-color="#00BEFF"/>
            <stop offset="51.22%" stop-color="#00D2FF"/>
            <stop offset="76.04%" stop-color="#00DFFF"/>
            <stop offset="100%" stop-color="#00E3FF"/>
        </linearGradient>
        <linearGradient id="b" x1="107.586%" x2="-130.492%" y1="50.016%" y2="50.016%">
            <stop offset="0%" stop-color="#FFE000"/>
            <stop offset="40.87%" stop-color="#FFBD00"/>
            <stop offset="77.54%" stop-color="#FFA500"/>
            <stop offset="100%" stop-color="#FF9C00"/>
        </linearGradient>
        <linearGradient id="c" x1="86.238%" x2="-50.131%" y1="117.851%" y2="294.785%">
            <stop offset="0%" stop-color="#FF3A44"/>
            <stop offset="100%" stop-color="#C31162"/>
        </linearGradient>
        <linearGradient id="d" x1="-18.801%" x2="42.094%" y1="-154.171%" y2="-75.137%">
            <stop offset="0%" stop-color="#32A071"/>
            <stop offset="6.85%" stop-color="#2DA771"/>
            <stop offset="47.62%" stop-color="#15CF74"/>
            <stop offset="80.09%" stop-color="#06E775"/>
            <stop offset="100%" stop-color="#00F076"/>
        </linearGradient>
    </defs>
    <g fill="none" fill-rule="evenodd" transform="translate(1 1)">
        <rect width="230" height="60" fill="#000" stroke="#979797" rx="30"/>
        <g fill-rule="nonzero">
            <path fill="#FFF" stroke="#FFF" stroke-width=".1" d="M84.322 16.253c0 1.216-.369 2.19-1.095 2.917-.835.862-1.922 1.295-3.254 1.295-1.273 0-2.36-.44-3.252-1.31-.894-.88-1.34-1.963-1.34-3.258 0-1.294.446-2.376 1.34-3.25.892-.876 1.979-1.317 3.252-1.317.634 0 1.238.13 1.815.37.575.242 1.043.57 1.382.974l-.77.769c-.592-.69-1.397-1.031-2.427-1.031-.929 0-1.734.32-2.418.967-.676.648-1.015 1.488-1.015 2.518 0 1.031.34 1.878 1.015 2.526.684.64 1.49.968 2.418.968.986 0 1.815-.328 2.469-.975.431-.428.676-1.018.74-1.772h-3.21v-1.052h4.283c.052.227.067.448.067.66zm6.793-3.65h-4.022v2.768h3.626v1.053h-3.626v2.768h4.022v1.073h-5.16V11.53h5.16v1.073zm4.795 7.662H94.77v-7.662h-2.467V11.53h6.075v1.073h-2.47v7.662zm6.865 0V11.53h1.137v8.735h-1.137zm6.177 0h-1.13v-7.662h-2.476V11.53h6.083v1.073h-2.477v7.662zm16.879 0V11.53h1.381l4.298 6.793h.05l-.05-1.679V11.53h1.136v8.735h-1.186l-4.5-7.128h-.05l.05 1.686v5.442h-1.13zm-2.9-1.124c-.872.883-1.952 1.324-3.24 1.324-1.296 0-2.375-.44-3.247-1.324-.87-.881-1.303-1.963-1.303-3.244 0-1.28.433-2.362 1.303-3.243.872-.883 1.951-1.324 3.247-1.324 1.28 0 2.36.44 3.232 1.331.877.889 1.31 1.963 1.31 3.236 0 1.28-.433 2.363-1.303 3.244zm-5.645-.732c.656.654 1.454.982 2.405.982.943 0 1.749-.328 2.397-.982.654-.654.986-1.493.986-2.512 0-1.018-.332-1.857-.986-2.51-.648-.655-1.454-.983-2.397-.983-.95 0-1.749.328-2.405.982-.654.654-.986 1.493-.986 2.511 0 1.019.332 1.858.986 2.512z"/>
            <path fill="#FFF" d="M115.322 31.422c-3.462 0-6.29 2.604-6.29 6.198 0 3.564 2.828 6.195 6.29 6.195 3.47 0 6.298-2.631 6.298-6.195 0-3.594-2.828-6.198-6.298-6.198zm0 9.953c-1.9 0-3.534-1.55-3.534-3.755 0-2.235 1.634-3.758 3.534-3.758s3.542 1.523 3.542 3.758c0 2.205-1.642 3.755-3.542 3.755zm-13.726-9.953c-3.47 0-6.29 2.604-6.29 6.198 0 3.564 2.82 6.195 6.29 6.195 3.468 0 6.291-2.631 6.291-6.195 0-3.594-2.823-6.198-6.29-6.198zm0 9.953c-1.901 0-3.541-1.55-3.541-3.755 0-2.235 1.64-3.758 3.541-3.758 1.9 0 3.534 1.523 3.534 3.758 0 2.205-1.634 3.755-3.534 3.755zm-16.333-8.053v2.633h6.363c-.186 1.471-.684 2.553-1.447 3.307-.928.91-2.375 1.922-4.916 1.922-3.915 0-6.982-3.124-6.982-6.994 0-3.87 3.067-6.993 6.982-6.993 2.117 0 3.658.818 4.795 1.877l1.877-1.855c-1.59-1.501-3.705-2.654-6.672-2.654-5.37 0-9.882 4.318-9.882 9.625s4.513 9.625 9.882 9.625c2.902 0 5.082-.94 6.796-2.702 1.756-1.736 2.303-4.176 2.303-6.147a8.71 8.71 0 0 0-.144-1.644h-8.955zm66.788 2.041c-.518-1.386-2.115-3.941-5.37-3.941-3.224 0-5.909 2.511-5.909 6.198 0 3.47 2.658 6.195 6.22 6.195 2.88 0 4.541-1.735 5.225-2.746l-2.137-1.408c-.714 1.03-1.685 1.714-3.089 1.714-1.395 0-2.395-.632-3.036-1.878l8.385-3.43-.289-.704zm-8.55 2.063c-.071-2.389 1.878-3.613 3.275-3.613 1.094 0 2.023.541 2.333 1.315l-5.608 2.298zm-6.816 6.012h2.757V25.226h-2.757v18.212zm-4.514-10.636h-.092c-.62-.724-1.8-1.38-3.297-1.38-3.14 0-6.01 2.725-6.01 6.218 0 3.473 2.87 6.175 6.01 6.175 1.497 0 2.678-.66 3.297-1.408h.092v.89c0 2.369-1.28 3.642-3.346 3.642-1.684 0-2.73-1.202-3.16-2.213l-2.398.989c.691 1.642 2.521 3.664 5.558 3.664 3.232 0 5.959-1.88 5.959-6.453V31.8h-2.613v1.003zm-3.153 8.573c-1.9 0-3.49-1.572-3.49-3.735 0-2.184 1.59-3.778 3.49-3.778 1.872 0 3.348 1.594 3.348 3.778 0 2.163-1.476 3.735-3.348 3.735zm35.939-16.149h-6.593v18.212h2.75v-6.9h3.843c3.053 0 6.048-2.184 6.048-5.657 0-3.471-3.002-5.655-6.048-5.655zm.072 8.778h-3.916V27.76h3.916a3.178 3.178 0 0 1 3.224 3.121c0 1.41-1.171 3.123-3.224 3.123zm16.994-2.617c-1.986 0-4.051.867-4.9 2.789l2.439 1.01c.525-1.01 1.49-1.338 2.511-1.338 1.426 0 2.873.847 2.895 2.342v.191c-.498-.284-1.563-.705-2.873-.705-2.627 0-5.305 1.43-5.305 4.098 0 2.44 2.153 4.012 4.572 4.012 1.85 0 2.87-.825 3.512-1.785h.094v1.408h2.655v-6.986c0-3.229-2.44-5.036-5.6-5.036zm-.331 9.98c-.9 0-2.152-.44-2.152-1.542 0-1.41 1.562-1.95 2.915-1.95 1.21 0 1.778.264 2.513.611-.216 1.687-1.684 2.882-3.276 2.882zm15.605-9.58l-3.16 7.894h-.094l-3.267-7.895h-2.965l4.909 11.033-2.8 6.14h2.872l7.564-17.173h-3.059zm-24.782 11.651h2.757V25.226h-2.757v18.212z"/>
            <path fill="url(#a)" d="M1.013 37.189C.58 36.74.33 36.043.33 35.139V2.92c0-.903.25-1.6.683-2.049L1.12.772 19.388 18.82v.426L1.12 37.294l-.107-.105z" transform="translate(29.491 11.005)"/>
            <path fill="url(#b)" d="M25.47 12.801l-6.082 6.02v.425l6.09 6.02.136-.079 7.212-4.056c2.059-1.15 2.059-3.045 0-4.203l-7.212-4.049-.143-.078z" transform="translate(29.491 11.005)"/>
            <path fill="url(#c)" d="M25.614 12.88l-6.226 6.153L1.013.87C1.697.16 2.812.075 4.08.785l21.535 12.094" transform="translate(29.491 11.005)"/>
            <path fill="url(#d)" d="M25.614 25.187L4.08 37.282c-1.267.702-2.382.617-3.066-.093l18.375-18.156 6.226 6.154z" transform="translate(29.491 11.005)"/>
        </g>
    </g>
</svg>
