<svg xmlns="http://www.w3.org/2000/svg" width="69" height="78" viewBox="0 0 69 78">
    <g fill="#00CECB" fill-rule="evenodd">
        <path fill-rule="nonzero" d="M34.066 3.185a4 4 0 0 0-3.251 1.994L3.299 52.838a4 4 0 0 0 1.464 5.464l28.579 16.5a4 4 0 0 0 5.464-1.464l27.516-47.659a4 4 0 0 0 .101-3.812L56.466 2.278c-.076-.159-.13-.22-.163-.239-.036-.02-.123-.038-.347-.022l-21.89 1.168zm-.107-1.997L55.85.02c.565-.04 1.049.054 1.451.285.402.232.725.6.968 1.106l9.938 19.55a6 6 0 0 1-.152 5.718L40.538 74.338a6 6 0 0 1-8.196 2.196l-28.579-16.5a6 6 0 0 1-2.196-8.196L29.083 4.179a6 6 0 0 1 4.876-2.991z"/>
        <path fill-rule="nonzero" d="M48.443 15.646a2.929 2.929 0 1 1 2.928-5.072 2.929 2.929 0 0 1-2.928 5.072zm1-1.732a.929.929 0 1 0 .928-1.608.929.929 0 0 0-.928 1.608z"/>
        <path d="M32.098 41.01c.754-1.307 1.797-2.01 3.183-2.149 1.203-.11 2.547.231 3.98 1.058 1.406.812 2.373 1.806 2.905 2.917.573 1.27.51 2.54-.244 3.846-.755 1.306-1.837 2.021-3.209 2.134-1.217.135-2.546-.231-3.979-1.058-1.432-.827-2.413-1.796-2.905-2.917-.588-1.244-.485-2.525.269-3.831zM22.5 38.08l.74-1.281 12.854 20.788-.74 1.281L22.5 38.081zm-5.828 10.906c.754-1.306 1.797-2.01 3.183-2.148 1.203-.11 2.547.23 3.98 1.058 1.406.812 2.373 1.806 2.904 2.916.574 1.27.51 2.54-.243 3.846-.755 1.307-1.823 1.996-3.194 2.109-1.217.135-2.547-.23-3.98-1.058-1.431-.827-2.413-1.795-2.905-2.917-.588-1.244-.5-2.5.255-3.806zm16.531-7.339c-.493.854-.504 1.686-.007 2.508.421.78 1.21 1.503 2.365 2.17 1.156.667 2.162 1.013 3.047.989.961.018 1.715-.417 2.208-1.272.479-.829.465-1.674-.028-2.562-.436-.754-1.199-1.463-2.355-2.13-1.155-.667-2.176-.988-3.061-.963-.975.006-1.69.431-2.169 1.26zm-15.426 7.978c.494-.855 1.208-1.28 2.169-1.261.885-.025 1.906.296 3.061.964 1.156.667 1.92 1.376 2.355 2.13.507.862.521 1.708.028 2.562-.493.854-1.233 1.265-2.193 1.246-.886.025-1.892-.322-3.047-.989-1.156-.667-1.959-1.365-2.38-2.144-.497-.823-.486-1.654.007-2.508zM38.233 31.79c.754-1.307 1.797-2.011 3.183-2.149 1.202-.11 2.547.23 3.979 1.058 1.407.812 2.374 1.806 2.905 2.917.574 1.269.51 2.539-.244 3.845-.754 1.307-1.837 2.022-3.208 2.134-1.217.135-2.547-.23-3.979-1.057s-2.414-1.796-2.905-2.917c-.588-1.244-.486-2.525.269-3.831zm1.114.691c-.493.854-.504 1.686-.008 2.508.421.78 1.21 1.503 2.366 2.17 1.155.667 2.161 1.013 3.047.989.96.018 1.714-.417 2.208-1.272.478-.829.464-1.674-.029-2.562-.435-.754-1.199-1.463-2.354-2.13-1.156-.667-2.177-.988-3.062-.963-.975.006-1.69.431-2.168 1.26z"/>
    </g>
</svg>
