<svg xmlns="http://www.w3.org/2000/svg" width="232" height="62" viewBox="0 0 232 62">
    <g fill="none" fill-rule="evenodd" transform="translate(1 1)">
        <rect width="230" height="60" fill="#000" stroke="#979797" rx="30"/>
        <g fill="#FFF" fill-rule="nonzero">
            <path d="M63.898 29.31c.046 5.253 4.658 6.989 4.715 7.008-.028.122-.723 2.505-2.453 4.925-1.444 2.13-2.958 4.213-5.362 4.251-2.335.053-3.121-1.355-5.8-1.355-2.703 0-3.54 1.317-5.78 1.408-2.29.083-4.039-2.274-5.536-4.386-2.993-4.31-5.322-12.148-2.199-17.481 1.514-2.616 4.274-4.3 7.224-4.345 2.292-.046 4.42 1.527 5.828 1.527 1.382 0 4.012-1.882 6.723-1.6 1.135.032 4.363.442 6.446 3.436-.168.1-3.846 2.231-3.806 6.613zm-4.411-12.884c-1.257 1.463-3.269 2.582-5.227 2.437-.257-1.974.736-4.073 1.847-5.353 1.256-1.453 3.436-2.567 5.18-2.643.23 2.051-.595 4.073-1.8 5.559zM95.84 44.687h-3.112l-1.704-5.272h-5.925l-1.623 5.272h-3.03l5.87-17.949h3.625l5.899 17.95zm-5.33-7.484l-1.541-4.687c-.164-.478-.47-1.606-.92-3.38h-.055c-.18.762-.468 1.89-.866 3.38l-1.514 4.687h4.896zM110.935 38.057c0 2.201-.604 3.941-1.813 5.218-1.082 1.137-2.426 1.705-4.03 1.705-1.733 0-2.977-.612-3.735-1.837h-.054v6.818h-2.921V36.006c0-1.384-.037-2.804-.109-4.261h2.57l.162 2.051h.055c.974-1.545 2.453-2.317 4.437-2.317 1.55 0 2.846.603 3.881 1.81 1.039 1.209 1.557 2.798 1.557 4.768zm-2.976.105c0-1.26-.288-2.298-.866-3.115-.632-.853-1.48-1.279-2.543-1.279-.72 0-1.376.237-1.96.705a3.264 3.264 0 0 0-1.15 1.852 3.71 3.71 0 0 0-.136.877v2.158c0 .941.293 1.736.88 2.385.586.648 1.348.972 2.285.972 1.1 0 1.957-.418 2.57-1.252.613-.835.92-1.935.92-3.303zM126.057 38.057c0 2.201-.604 3.941-1.814 5.218-1.08 1.137-2.425 1.705-4.03 1.705-1.731 0-2.975-.612-3.732-1.837h-.055v6.818h-2.92V36.006c0-1.384-.038-2.804-.109-4.261h2.57l.162 2.051h.055c.973-1.545 2.451-2.317 4.437-2.317 1.55 0 2.844.603 3.883 1.81 1.034 1.209 1.553 2.798 1.553 4.768zm-2.976.105c0-1.26-.289-2.298-.867-3.115-.632-.853-1.477-1.279-2.542-1.279-.722 0-1.375.237-1.962.705-.586.472-.968 1.089-1.148 1.852-.089.356-.136.648-.136.877v2.158c0 .941.294 1.736.877 2.385.587.647 1.349.972 2.289.972 1.1 0 1.956-.418 2.569-1.252.613-.835.92-1.935.92-3.303zM142.965 39.654c0 1.527-.538 2.769-1.62 3.728-1.187 1.048-2.841 1.571-4.966 1.571-1.962 0-3.535-.372-4.726-1.118l.677-2.397c1.282.764 2.69 1.147 4.223 1.147 1.1 0 1.956-.246 2.571-.734.613-.488.918-1.144.918-1.961 0-.728-.252-1.342-.757-1.84-.503-.497-1.343-.96-2.516-1.388-3.192-1.172-4.787-2.889-4.787-5.146 0-1.476.559-2.686 1.678-3.627 1.116-.943 2.604-1.414 4.464-1.414 1.66 0 3.038.285 4.138.853l-.73 2.344c-1.028-.55-2.19-.826-3.49-.826-1.028 0-1.83.25-2.406.746-.486.444-.73.985-.73 1.626 0 .709.278 1.296.837 1.757.486.426 1.37.887 2.653 1.385 1.568.622 2.72 1.349 3.462 2.182.738.831 1.107 1.871 1.107 3.112zM152.623 33.903h-3.22v6.284c0 1.598.568 2.396 1.705 2.396.522 0 .955-.044 1.297-.133l.081 2.184c-.575.211-1.333.318-2.271.318-1.154 0-2.056-.347-2.707-1.039-.648-.693-.974-1.856-.974-3.489V33.9h-1.918v-2.158h1.918v-2.37l2.87-.852v3.222h3.22v2.16zM167.151 38.11c0 1.989-.578 3.622-1.732 4.9-1.21 1.315-2.816 1.97-4.817 1.97-1.93 0-3.465-.63-4.61-1.89-1.146-1.26-1.72-2.85-1.72-4.766 0-2.006.59-3.648 1.773-4.926 1.18-1.278 2.771-1.917 4.773-1.917 1.93 0 3.482.63 4.653 1.89 1.121 1.224 1.68 2.803 1.68 4.739zm-3.03.093c0-1.194-.26-2.218-.784-3.071-.613-1.034-1.488-1.549-2.623-1.549-1.174 0-2.066.517-2.679 1.549-.524.855-.783 1.895-.783 3.125 0 1.193.259 2.217.783 3.07.632 1.033 1.514 1.548 2.653 1.548 1.115 0 1.99-.526 2.622-1.576.539-.87.81-1.904.81-3.096zM176.646 34.274a5.15 5.15 0 0 0-.92-.08c-1.028 0-1.823.382-2.382 1.147-.486.674-.73 1.526-.73 2.556v6.79h-2.92l.027-8.866c0-1.492-.037-2.85-.11-4.075h2.545l.107 2.477h.08c.31-.852.796-1.537 1.461-2.05.651-.463 1.354-.694 2.112-.694.27 0 .514.02.73.053v2.742zM189.71 37.604c0 .515-.034.95-.106 1.304h-8.764c.035 1.279.458 2.257 1.272 2.93.738.604 1.693.906 2.866.906 1.298 0 2.481-.204 3.546-.612l.458 1.996c-1.244.534-2.713.8-4.408.8-2.039 0-3.64-.591-4.804-1.771-1.162-1.18-1.744-2.765-1.744-4.753 0-1.952.541-3.577 1.625-4.873 1.134-1.384 2.668-2.076 4.597-2.076 1.895 0 3.33.692 4.303 2.076.772 1.099 1.16 2.458 1.16 4.073zm-2.785-.746c.02-.852-.171-1.589-.567-2.21-.506-.8-1.283-1.2-2.328-1.2-.955 0-1.732.39-2.325 1.172-.487.622-.776 1.368-.865 2.237h6.085v.001z"/>
            <g>
                <path d="M89.052 15.649c0 1.658-.485 2.906-1.452 3.745-.896.773-2.169 1.16-3.818 1.16-.818 0-1.517-.036-2.103-.11v-9.06a15.12 15.12 0 0 1 2.476-.192c1.571 0 2.755.35 3.553 1.052.895.794 1.344 1.928 1.344 3.405zm-1.516.04c0-1.075-.278-1.899-.832-2.474-.554-.573-1.363-.86-2.43-.86-.452 0-.838.03-1.157.095v6.889c.177.028.5.04.97.04 1.101 0 1.95-.314 2.549-.942.598-.629.9-1.544.9-2.748zM97.09 17.097c0 1.021-.284 1.858-.852 2.515-.596.675-1.385 1.012-2.37 1.012-.949 0-1.705-.323-2.269-.971-.562-.647-.844-1.463-.844-2.446 0-1.029.29-1.873.872-2.528.581-.655 1.363-.983 2.348-.983.95 0 1.713.322 2.29.97.549.627.825 1.439.825 2.43zm-1.492.048c0-.613-.129-1.139-.385-1.577-.302-.53-.731-.794-1.29-.794-.577 0-1.016.264-1.318.794-.258.438-.386.972-.386 1.604 0 .613.13 1.138.386 1.576.311.53.745.795 1.305.795.548 0 .98-.27 1.29-.809.265-.447.398-.976.398-1.59zM107.867 13.831l-2.023 6.642h-1.317l-.838-2.884a22.067 22.067 0 0 1-.52-2.146h-.026a16.06 16.06 0 0 1-.52 2.146l-.89 2.884H100.4l-1.903-6.642h1.478l.731 3.157c.177.747.322 1.459.439 2.132h.026c.107-.555.284-1.262.534-2.117l.918-3.17h1.171l.88 3.102a26 26 0 0 1 .518 2.187h.04c.097-.684.244-1.412.439-2.187l.785-3.103h1.411v-.001zM115.321 20.473h-1.438v-3.804c0-1.173-.433-1.759-1.303-1.759-.427 0-.771.16-1.039.483-.264.323-.399.704-.399 1.139v3.94h-1.438v-4.743c0-.583-.017-1.216-.052-1.9h1.264l.067 1.038h.04a2.11 2.11 0 0 1 .745-.802c.39-.248.826-.374 1.303-.374.604 0 1.106.2 1.505.602.497.492.745 1.226.745 2.2v3.98zM119.286 20.473h-1.437v-9.69h1.437zM127.75 17.097c0 1.021-.283 1.858-.851 2.515-.596.675-1.386 1.012-2.37 1.012-.95 0-1.706-.323-2.269-.971-.562-.647-.844-1.463-.844-2.446 0-1.029.29-1.873.872-2.528.581-.655 1.363-.983 2.347-.983.95 0 1.712.322 2.291.97.549.627.825 1.439.825 2.43zm-1.492.048c0-.613-.129-1.139-.386-1.577-.3-.53-.73-.794-1.288-.794-.579 0-1.018.264-1.318.794-.258.438-.386.972-.386 1.604 0 .613.13 1.138.386 1.576.311.53.745.795 1.304.795.55 0 .979-.27 1.289-.809.267-.447.399-.976.399-1.59zM134.709 20.473h-1.291l-.107-.765h-.04c-.442.61-1.071.916-1.889.916-.61 0-1.104-.202-1.476-.602-.338-.364-.506-.816-.506-1.353 0-.811.329-1.43.992-1.858.66-.428 1.591-.638 2.789-.628v-.124c0-.875-.448-1.312-1.343-1.312-.638 0-1.2.165-1.687.492l-.292-.97c.601-.382 1.343-.573 2.219-.573 1.69 0 2.538.916 2.538 2.747v2.446c0 .664.031 1.192.093 1.584zm-1.493-2.283v-1.024c-1.586-.028-2.379.418-2.379 1.338 0 .347.091.606.276.78a.99.99 0 0 0 .703.259c.315 0 .61-.103.879-.307a1.261 1.261 0 0 0 .521-1.046zM142.879 20.473h-1.276l-.067-1.067h-.04c-.408.812-1.102 1.218-2.077 1.218-.78 0-1.428-.315-1.943-.943-.514-.628-.77-1.444-.77-2.446 0-1.075.278-1.946.837-2.61.542-.62 1.206-.93 1.996-.93.869 0 1.477.3 1.822.901h.028v-3.813h1.439v7.9c0 .647.016 1.243.05 1.79zm-1.49-2.801v-1.108a2.23 2.23 0 0 0-.04-.465 1.69 1.69 0 0 0-.52-.894 1.391 1.391 0 0 0-.962-.362c-.536 0-.956.218-1.265.656-.305.438-.46.998-.46 1.681 0 .657.146 1.19.441 1.6.312.436.731.654 1.257.654.472 0 .85-.181 1.136-.546.277-.337.413-.743.413-1.216zM155.175 17.097c0 1.021-.284 1.858-.852 2.515-.595.675-1.383 1.012-2.369 1.012-.948 0-1.704-.323-2.27-.971-.562-.647-.843-1.463-.843-2.446 0-1.029.29-1.873.871-2.528.582-.655 1.364-.983 2.35-.983.948 0 1.713.322 2.289.97.548.627.824 1.439.824 2.43zm-1.49.048c0-.613-.129-1.139-.385-1.577-.303-.53-.731-.794-1.291-.794-.576 0-1.015.264-1.319.794-.257.438-.385.972-.385 1.604 0 .613.129 1.138.385 1.576.312.53.745.795 1.305.795.549 0 .981-.27 1.291-.809.265-.447.4-.976.4-1.59zM162.906 20.473h-1.436v-3.804c0-1.173-.434-1.759-1.305-1.759-.427 0-.771.16-1.037.483-.266.323-.4.704-.4 1.139v3.94h-1.439v-4.743c0-.583-.016-1.216-.05-1.9h1.262l.067 1.038h.04c.169-.323.418-.59.745-.802a2.387 2.387 0 0 1 1.304-.374c.603 0 1.105.2 1.504.602.498.492.745 1.226.745 2.2v3.98zM172.582 14.937H171v3.227c0 .82.281 1.23.838 1.23.258 0 .472-.023.64-.07l.038 1.12c-.284.11-.657.165-1.117.165-.568 0-1.01-.177-1.33-.532-.32-.355-.48-.953-.48-1.79v-3.35h-.945v-1.106h.946v-1.217l1.409-.437v1.653h1.583v1.107h.001zM180.194 20.473h-1.44v-3.776c0-1.19-.433-1.787-1.302-1.787-.666 0-1.122.345-1.371 1.036a1.902 1.902 0 0 0-.068.531v3.994h-1.436v-9.688h1.436v4.003h.028c.452-.728 1.101-1.092 1.942-1.092.596 0 1.088.2 1.48.602.486.5.73 1.244.73 2.227v3.95zM188.045 16.838c0 .265-.02.487-.053.669h-4.312c.019.657.225 1.157.624 1.503.365.31.835.465 1.412.465.637 0 1.22-.104 1.743-.314l.225 1.026c-.613.273-1.335.41-2.17.41-1.002 0-1.79-.303-2.361-.909-.574-.606-.858-1.419-.858-2.439 0-1.002.265-1.836.799-2.5.557-.71 1.31-1.066 2.26-1.066.93 0 1.637.355 2.115 1.065.385.564.576 1.261.576 2.09zm-1.372-.382c.011-.438-.084-.816-.278-1.134-.25-.41-.63-.616-1.145-.616-.469 0-.852.2-1.144.602a2.27 2.27 0 0 0-.426 1.148h2.993z"/>
            </g>
        </g>
    </g>
</svg>
