<svg xmlns="http://www.w3.org/2000/svg" width="60" height="60" viewBox="0 0 60 60">
    <path fill="#F5A623" fill-rule="nonzero" d="M35.095 33.782a11.878 11.878 0 0 0-3.686-1.952c-1.74-.594-4.044-1.084-4.044-1.084l-2.055 7.67s2.36.686 3.978.993a11.75 11.75 0 0 0 4.304.118 3.277 3.277 0 0 0 1.503-5.745zm-3.8-5.8a9 9 0 0 0 3.933.088 2.905 2.905 0 0 0 2.268-2.312 3.203 3.203 0 0 0-1.608-3.495 11.77 11.77 0 0 0-3.442-1.458c-1.114-.317-2.278-.523-2.278-.523l-1.849 6.902s1.658.498 2.975.797zm6.47-26.96C21.76-3.266 5.31 6.232 1.022 22.235-3.266 38.24 6.232 54.69 22.235 58.978c16.004 4.288 32.455-5.21 36.743-21.213A30 30 0 0 0 37.765 1.022zm1.065 43.219c-1.93.638-3.99.788-5.992.436a37.925 37.925 0 0 1-2.34-.422l-1.557 5.81-3.577-.959 1.529-5.704-2.724-.73-1.532 5.716-3.576-.958 1.532-5.716-7.035-1.885 1.876-4.101 2.14.573c.448.205.962.206 1.412.003a1.5 1.5 0 0 0 .656-.97l3.968-14.81a2 2 0 0 0-.059-1.79 3.057 3.057 0 0 0-1.847-1.074l-2.067-.554.994-3.712 7.034 1.885 1.537-5.733 3.576.959-1.536 5.732 2.724.73 1.536-5.732 3.576.958-1.553 5.795c2.277.604 4.32 1.881 5.86 3.664a6.177 6.177 0 0 1 .674 5.769 6.665 6.665 0 0 1-1.717 2.602 8.347 8.347 0 0 1-2.529 1.15 9.023 9.023 0 0 1 2.614 2.08 5.922 5.922 0 0 1 .755 5.468 7.42 7.42 0 0 1-4.352 5.52z"/>
</svg>
