<svg xmlns="http://www.w3.org/2000/svg" width="60" height="60" viewBox="0 0 60 60">
    <path fill="#FFD200" fill-rule="nonzero" d="M36.303 30.728a11.878 11.878 0 0 0-4.168.152c-1.804.356-4.044 1.084-4.044 1.084l2.055 7.669s2.387-.585 3.942-1.129a11.75 11.75 0 0 0 3.786-2.05 3.277 3.277 0 0 0-1.57-5.726zm-6.192-3.123a9 9 0 0 0 3.451-1.89 2.905 2.905 0 0 0 .809-3.137 3.203 3.203 0 0 0-3.14-2.223 11.77 11.77 0 0 0-3.71.459c-1.123.282-2.234.686-2.234.686l1.85 6.902s1.684-.397 2.974-.797zM22.235 1.022C6.231 5.31-3.266 21.761 1.022 37.765s20.739 25.501 36.743 21.213 25.501-20.739 21.213-36.743A30 30 0 0 0 22.235 1.022zm22.532 36.896a12.308 12.308 0 0 1-4.97 3.374c-.738.291-1.485.56-2.239.804l1.557 5.81-3.576.958-1.529-5.704-2.724.73 1.532 5.716-3.576.958-1.532-5.715-7.034 1.884-.427-4.49 2.14-.573c.49-.047.937-.303 1.224-.703a1.5 1.5 0 0 0 .083-1.17l-3.968-14.81a2 2 0 0 0-.946-1.519 3.057 3.057 0 0 0-2.137-.007l-2.067.554-.995-3.711 7.035-1.885-1.536-5.733 3.576-.958 1.536 5.732 2.724-.73-1.536-5.732 3.576-.959 1.553 5.796c2.274-.616 4.681-.53 6.906.243a6.177 6.177 0 0 1 3.469 4.659 6.665 6.665 0 0 1-.186 3.112 8.347 8.347 0 0 1-1.615 2.26 9.023 9.023 0 0 1 3.303.494 5.922 5.922 0 0 1 3.389 4.359 7.42 7.42 0 0 1-1.01 6.956z"/>
</svg>
